<?xml version="1.0" encoding="utf-8"?>
<!-- Generator: Adobe Illustrator 23.0.2, SVG Export Plug-In . SVG Version: 6.00 Build 0)  -->
<svg version="1.1" id="Layer_1" xmlns="http://www.w3.org/2000/svg" xmlns:xlink="http://www.w3.org/1999/xlink" x="0px" y="0px"
	 viewBox="0 0 1920 600" style="enable-background:new 0 0 1920 600;" xml:space="preserve">
<style type="text/css">
	.st0{fill:#FEFEFE;}
	.st1{fill:#B3FBFA;}
	.st2{fill:#F9D1BD;}
	.st3{fill:#0BF3F2;}
	.st4{fill:#EB5A10;}
	.st5{fill:#565455;}
	.st6{fill:#575455;}
	.st7{fill:#EB5B10;}
</style>
<g>
	<path class="st0" d="M744.24,381.84c0-94.52,0-189.04-0.02-283.56c0-0.9,0.2-1.1,1.1-1.1c69.96,0.02,139.92,0.02,209.88,0.02
		c0,0.07,0,0.14-0.01,0.21c-0.4,0.02-0.8,0.04-1.2,0.07c-1.71,0.11-1.76,0.13-1.68,1.82c0.13,3.16,0.31,6.31,0.45,9.46
		c0.51,12.26,1.03,24.53,1.5,36.79c0.04,0.99,0.42,1.29,1.35,1.38c2.82,0.27,5.68,0.44,8.45,1c19.68,3.99,35.58,13.77,46.66,30.81
		c6.47,9.96,10.26,20.78,10.5,32.75c0.19,9.46-1.58,18.51-5.41,27.15c-0.5,1.13-0.24,1.61,0.8,2.1c2.92,1.39,5.8,2.87,8.69,4.31
		c11.14,5.57,22.27,11.15,33.41,16.73c0.71,0.36,1.24,0.54,1.75-0.39c7.3-13.29,11.96-27.42,13.26-42.56
		c1.07-12.45,0.01-24.77-3.2-36.84c-6.8-25.62-21.44-45.94-42.68-61.47c-19.99-14.63-42.68-21.85-67.34-23.11
		c-0.01-0.07-0.02-0.14-0.01-0.21c71.27,0,142.55,0,213.82-0.02c0.96,0,1.25,0.12,1.25,1.2c-0.03,134.51-0.03,269.01-0.01,403.52
		c0,0.96-0.18,1.17-1.16,1.17c-142.99-0.03-285.97-0.03-428.96,0c-1.05,0-1.21-0.26-1.21-1.24c0.03-37.36,0.02-74.71,0.02-112.07
		c0.07,0,0.14,0.01,0.21,0.01c0.2,4.87,0.57,9.74,1.29,14.56c2.48,16.6,8.16,32.06,16.84,46.42c0.81,1.34,0.82,1.34,2.15,0.49
		c3.91-2.5,7.81-5,11.72-7.49c9.03-5.76,18.06-11.52,27.08-17.29c1.25-0.8,1.24-0.89,0.47-2.14c-0.52-0.85-1-1.73-1.41-2.64
		c-3.36-7.37-5.42-15.08-6.08-23.17c-0.83-10.17,0.15-20.13,3.7-29.73c7.05-19.05,20.05-32.29,39.13-39.41
		c4.62-1.72,9.44-2.7,14.31-3.37c0.85-0.12,1.19-0.47,1.14-1.32c-0.24-3.71-0.47-7.42-0.69-11.13c-0.7-12.01-1.4-24.02-2.09-36.04
		c-0.09-1.61-0.19-1.76-1.73-1.69c-6.39,0.3-12.75,0.81-19.04,2.08c-25.04,5.03-45.68,17.47-61.73,37.24
		c-15.74,19.38-23.9,41.76-25.06,66.69C744.38,381.83,744.31,381.84,744.24,381.84z M882.98,269.62c-2.39,1.57-5.05,2.57-7.73,3.48
		c-4.82,1.64-9.75,2.77-14.87,2.94c-0.92,0.03-1.4,0.39-1.33,1.4c0.18,2.47,0.31,4.95,0.46,7.42c0.54,8.94,1.09,17.88,1.62,26.81
		c0.26,4.31,0.51,8.62,0.74,12.93c0.05,1.02,0.48,1.42,1.51,1.32c1.91-0.18,3.83-0.26,5.74-0.45c11.41-1.11,22.27-4.23,32.52-9.33
		c18.93-9.42,32.97-23.85,42.78-42.44c8.93-16.91,12.72-35.12,13.15-54.11c0.29-12.81-0.99-25.46-4.28-37.87
		c-1.94-7.34-4.06-14.62-7.09-21.6c-0.58-1.34-0.63-1.33-1.91-0.66c-5.51,2.9-11.03,5.8-16.55,8.69
		c-5.98,3.14-11.95,6.28-17.94,9.39c-0.92,0.48-1.2,0.97-0.79,1.98c0.58,1.4,1.02,2.86,1.48,4.3c4.63,14.38,6.51,28.98,3.2,43.93
		c-2.89,13.04-8.75,24.48-18.64,33.64c-2.84,2.63-5.82,5.13-9.41,6.74c0.17-0.53,0.3-1.07,0.52-1.58
		c5.63-13.26,11.27-26.52,16.91-39.78c0.14-0.34,0.51-0.73,0.14-1.09c-0.3-0.29-0.67,0.01-1,0.12c-3.34,1.07-6.7,2.11-10.03,3.23
		c-1.06,0.36-1.51,0.13-1.76-0.97c-1.81-7.82-2.46-15.69-1.48-23.69c1.42-11.56,5.6-22.01,12.74-31.22
		c10.6-13.66,24.67-21.71,41.42-25.34c1.19-0.26,1.64-0.71,1.59-1.99c-0.47-11.99-0.87-23.98-1.31-35.97
		c-0.12-3.2-0.3-6.39-0.4-9.59c-0.02-0.8-0.28-1.09-1.06-0.92c-0.27,0.06-0.56,0.05-0.83,0.09c-7.85,1.36-15.48,3.51-22.91,6.4
		c-36.62,14.25-69.69,50.49-72,96.83c-0.66,13.31,0.84,26.32,5.06,38.98c0.31,0.94,0.17,1.25-0.79,1.54
		c-2.55,0.78-5.06,1.7-7.58,2.56c-0.04,0.11-0.07,0.22-0.11,0.33C856.15,253.93,869.56,261.78,882.98,269.62z M1061.17,502.72
		c3.2-0.13,6.75-0.27,10.3-0.59c10.29-0.91,20.26-3.17,29.85-7.05c27.26-11.04,48.24-29.23,62.51-55.03
		c0.55-0.99,0.39-1.41-0.59-1.92c-8.09-4.17-16.16-8.39-24.23-12.6c-5.59-2.91-11.19-5.83-16.79-8.74
		c-1.38-0.72-1.65-0.65-2.57,0.62c-0.8,1.1-1.62,2.18-2.43,3.28c-6.01,8.11-13.31,14.76-22.2,19.62c-17.62,9.63-36,11.64-55.06,5.1
		c-12.11-4.15-21.73-11.86-29.42-22.01c-0.71-0.94-1.21-1.16-2.29-0.44c-12.97,8.57-25.97,17.09-38.96,25.62
		c-1.47,0.96-1.46,0.99-0.55,2.53c5.38,9.14,12.12,17.15,20.03,24.2C1009.3,493.61,1033.47,502.33,1061.17,502.72z M925.2,370.81
		c-6.61,0.19-13.19,0.63-19.7,1.73c-14.12,2.37-27.34,7.31-39.81,14.28c-17.95,10.05-32.81,23.66-45.64,39.61
		c-0.9,1.12-0.87,1.22,0.47,2.06c10.83,6.79,21.67,13.57,32.51,20.35c1.52,0.95,1.51,0.94,2.7-0.45
		c9.21-10.73,19.94-19.51,32.98-25.18c14.11-6.14,28.69-7.46,43.56-3.22c13.14,3.74,23.21,11.84,31.07,22.83
		c0.67,0.94,1.15,1.02,2.09,0.4c13.08-8.55,26.17-17.07,39.28-25.56c0.91-0.59,1.05-1.05,0.46-2c-6.58-10.42-14.56-19.56-24.6-26.77
		C964.03,377.03,945.72,370.5,925.2,370.81z M1113.77,402.49c0.57,0,0.82-0.27,0.85-0.81c0.02-0.44,0.09-0.88,0.1-1.32
		c0.43-12.71,0.86-25.42,1.28-38.12c0.06-1.69,0.01-1.78-1.63-2c-8.15-1.1-15.8-3.81-23.24-7.21c-12.89-5.9-23.81-14.21-31.53-26.25
		c-11.66-18.22-13.34-37.23-3.97-56.95c0.47-0.98,0.12-1.31-0.68-1.71c-13.88-6.95-27.76-13.92-41.63-20.88
		c-1.6-0.8-1.6-0.8-2.4,0.79c-6.86,13.46-10.41,27.77-10.75,42.85c-0.31,13.73,2.71,26.82,8.2,39.33
		c9.64,21.94,25.29,38.66,45.54,51.11c15.79,9.71,32.92,16.16,51.13,19.69C1107.93,401.56,1110.86,402,1113.77,402.49z
		 M944.99,429.6c0,0.01,0,0.03,0,0.04c-9.07,0.39-18.13,0.79-27.2,1.17c-5.71,0.24-11.42,0.48-17.14,0.72
		c-0.44,0.02-0.96-0.01-1.14,0.46c-0.17,0.43,0.27,0.71,0.54,0.99c1.43,1.51,2.86,3.02,4.3,4.52c2.61,2.74,2.81,2.2-0.22,4.82
		c-14.86,12.83-32.14,17.72-51.46,15.02c-16.97-2.37-30.86-10.64-42.23-23.3c-0.65-0.72-1.15-0.75-1.94-0.24
		c-12.89,8.26-25.79,16.49-38.69,24.73c-1.43,0.91-1.44,0.96-0.36,2.23c10.51,12.35,23.18,21.96,37.57,29.33
		c13.02,6.67,26.85,10.52,41.43,11.81c9.12,0.81,18.21,0.79,27.26-0.6c15.36-2.37,29.44-8.04,42.4-16.57
		c5.93-3.91,11.23-8.6,16.37-13.48c1.18-1.12,1.2-1.12,2.28,0c1.86,1.93,3.7,3.88,5.55,5.81c0.27,0.28,0.5,0.72,0.97,0.57
		c0.51-0.16,0.34-0.66,0.37-1.03c0.21-2.35,0.38-4.7,0.59-7.05c0.6-6.69,1.23-13.37,1.83-20.05c0.54-5.97,1.04-11.94,1.6-17.91
		c0.19-2.04,0.25-2.04-1.84-1.99C945.55,429.6,945.27,429.6,944.99,429.6z M1083.8,329.99c0.11-0.38,0.18-0.57,0.21-0.76
		c0.34-2.29,0.69-4.58,1.02-6.88c0.22-1.57,0.41-1.74,1.91-1.16c1.97,0.75,3.98,1.47,5.86,2.43c23.24,11.91,34.69,31.35,36.11,57.04
		c0.46,8.3-0.93,16.41-3.53,24.3c-0.58,1.75-0.56,1.76,1.03,2.6c2.65,1.39,5.3,2.78,7.96,4.17c10.93,5.72,21.87,11.43,32.79,17.15
		c0.69,0.36,1.11,0.44,1.4-0.48c5.03-16.09,7.6-32.48,6.3-49.38c-0.98-12.74-3.88-25.01-9-36.7c-14.05-32.1-37.94-52.84-71.87-61.87
		c-2.81-0.75-2.52-0.14-2.09-3.2c0.49-3.51,1.01-7.01,1.54-10.68c-0.45,0.26-0.77,0.41-1.06,0.6
		c-13.07,8.34-26.12,16.69-39.21,25.01c-0.9,0.57-0.76,0.9-0.18,1.57c5.79,6.78,11.56,13.58,17.33,20.38
		C1074.76,319.36,1079.21,324.6,1083.8,329.99z"/>
	<path class="st1" d="M744.45,389.77c-0.07-0.01-0.14-0.01-0.21-0.01c0-2.64,0-5.28,0-7.92c0.07,0,0.14-0.01,0.21-0.01
		C744.45,384.48,744.45,387.12,744.45,389.77z"/>
	<path class="st2" d="M960.48,97.2c0,0.07,0,0.14,0.01,0.21c-1.77,0-3.54,0-5.3,0c0.01-0.07,0.02-0.14,0.01-0.21
		C956.96,97.2,958.72,97.2,960.48,97.2z"/>
	<path class="st3" d="M744.45,389.77c0-2.65,0-5.3,0-7.94c1.15-24.94,9.32-47.31,25.06-66.69c16.05-19.77,36.7-32.21,61.73-37.24
		c6.29-1.26,12.65-1.78,19.04-2.08c1.54-0.07,1.63,0.08,1.73,1.69c0.69,12.01,1.39,24.02,2.09,36.04c0.22,3.71,0.44,7.42,0.69,11.13
		c0.06,0.85-0.29,1.21-1.14,1.32c-4.88,0.67-9.69,1.65-14.31,3.37c-19.08,7.13-32.08,20.36-39.13,39.41
		c-3.55,9.6-4.52,19.56-3.7,29.73c0.66,8.09,2.72,15.8,6.08,23.17c0.41,0.91,0.88,1.79,1.41,2.64c0.78,1.25,0.79,1.35-0.47,2.14
		c-9.03,5.76-18.06,11.52-27.08,17.29c-3.91,2.49-7.81,5-11.72,7.49c-1.32,0.85-1.34,0.85-2.15-0.49
		c-8.68-14.36-14.36-29.82-16.84-46.42C745.02,399.51,744.65,394.65,744.45,389.77z"/>
	<path class="st4" d="M955.19,97.41c1.77,0,3.54,0,5.3,0c24.66,1.26,47.35,8.48,67.34,23.11c21.23,15.53,35.88,35.85,42.68,61.47
		c3.2,12.08,4.26,24.39,3.2,36.84c-1.3,15.14-5.95,29.27-13.26,42.56c-0.51,0.93-1.03,0.74-1.75,0.39
		c-11.13-5.58-22.27-11.15-33.41-16.73c-2.89-1.45-5.77-2.92-8.69-4.31c-1.04-0.49-1.3-0.97-0.8-2.1c3.83-8.64,5.6-17.69,5.41-27.15
		c-0.24-11.97-4.03-22.79-10.5-32.75c-11.07-17.04-26.98-26.82-46.66-30.81c-2.77-0.56-5.62-0.72-8.45-1
		c-0.93-0.09-1.31-0.39-1.35-1.38c-0.48-12.26-0.99-24.53-1.5-36.79c-0.13-3.16-0.31-6.31-0.45-9.46c-0.07-1.69-0.03-1.72,1.68-1.82
		C954.39,97.45,954.79,97.43,955.19,97.41z"/>
	<path class="st5" d="M1061.17,502.72c-27.7-0.39-51.88-9.11-72.42-27.42c-7.91-7.05-14.65-15.06-20.03-24.2
		c-0.9-1.54-0.91-1.56,0.55-2.53c12.99-8.53,26-17.05,38.96-25.62c1.09-0.72,1.58-0.5,2.29,0.44c7.7,10.15,17.31,17.86,29.42,22.01
		c19.06,6.53,37.44,4.53,55.06-5.1c8.89-4.86,16.19-11.5,22.2-19.62c0.81-1.09,1.63-2.18,2.43-3.28c0.92-1.26,1.19-1.34,2.57-0.62
		c5.6,2.91,11.19,5.83,16.79,8.74c8.07,4.21,16.14,8.43,24.23,12.6c0.98,0.51,1.14,0.93,0.59,1.92
		c-14.28,25.8-35.25,43.99-62.51,55.03c-9.58,3.88-19.55,6.14-29.85,7.05C1067.92,502.45,1064.37,502.59,1061.17,502.72z"/>
	<path class="st6" d="M925.2,370.81c20.53-0.31,38.84,6.21,55.37,18.09c10.04,7.21,18.02,16.36,24.6,26.77
		c0.6,0.94,0.45,1.41-0.46,2c-13.11,8.5-26.2,17.02-39.28,25.56c-0.94,0.62-1.42,0.53-2.09-0.4c-7.87-10.99-17.93-19.09-31.07-22.83
		c-14.87-4.24-29.45-2.92-43.56,3.22c-13.04,5.67-23.77,14.44-32.98,25.18c-1.19,1.39-1.19,1.4-2.7,0.45
		c-10.84-6.78-21.67-13.57-32.51-20.35c-1.34-0.84-1.37-0.94-0.47-2.06c12.83-15.95,27.69-29.57,45.64-39.61
		c12.47-6.98,25.69-11.92,39.81-14.28C912.01,371.45,918.59,371,925.2,370.81z"/>
	<path class="st4" d="M1113.77,402.49c-2.91-0.49-5.84-0.92-8.74-1.48c-18.21-3.54-35.34-9.99-51.13-19.69
		c-20.25-12.45-35.9-29.17-45.54-51.11c-5.49-12.51-8.51-25.6-8.2-39.33c0.34-15.08,3.9-29.39,10.75-42.85
		c0.81-1.59,0.81-1.59,2.4-0.79c13.88,6.96,27.75,13.93,41.63,20.88c0.8,0.4,1.15,0.73,0.68,1.71c-9.37,19.72-7.7,38.73,3.97,56.95
		c7.71,12.05,18.64,20.35,31.53,26.25c7.44,3.41,15.08,6.12,23.24,7.21c1.63,0.22,1.68,0.31,1.63,2
		c-0.42,12.71-0.85,25.42-1.28,38.12c-0.01,0.44-0.08,0.88-0.1,1.32C1114.59,402.21,1114.34,402.49,1113.77,402.49z"/>
	<path class="st3" d="M885.62,268.13c3.59-1.61,6.57-4.11,9.41-6.74c9.89-9.16,15.75-20.6,18.64-33.64
		c3.32-14.95,1.43-29.55-3.2-43.93c-0.46-1.44-0.9-2.9-1.48-4.3c-0.41-1.01-0.13-1.5,0.79-1.98c5.99-3.1,11.97-6.25,17.94-9.39
		c5.52-2.89,11.04-5.79,16.55-8.69c1.28-0.67,1.33-0.68,1.91,0.66c3.02,6.98,5.14,14.26,7.09,21.6c3.29,12.41,4.56,25.06,4.28,37.87
		c-0.42,18.99-4.22,37.2-13.15,54.11c-9.82,18.59-23.85,33.03-42.78,42.44c-10.25,5.1-21.11,8.22-32.52,9.33
		c-1.91,0.19-3.83,0.27-5.74,0.45c-1.02,0.1-1.45-0.31-1.51-1.32c-0.23-4.31-0.48-8.62-0.74-12.93c-0.53-8.94-1.08-17.88-1.62-26.81
		c-0.15-2.47-0.28-4.95-0.46-7.42c-0.07-1.01,0.41-1.37,1.33-1.4c5.12-0.16,10.05-1.3,14.87-2.94c2.68-0.91,5.34-1.91,7.73-3.48
		C883.97,269.32,884.86,268.83,885.62,268.13z"/>
	<path class="st7" d="M885.62,268.13c-0.76,0.7-1.65,1.19-2.64,1.49c-13.42-7.85-26.83-15.69-40.25-23.54
		c0.04-0.11,0.07-0.22,0.11-0.33c2.52-0.86,5.03-1.78,7.58-2.56c0.96-0.29,1.1-0.6,0.79-1.54c-4.22-12.66-5.72-25.67-5.06-38.98
		c2.31-46.33,35.38-82.57,72-96.83c7.43-2.89,15.06-5.04,22.91-6.4c0.28-0.05,0.56-0.03,0.83-0.09c0.78-0.17,1.03,0.12,1.06,0.92
		c0.1,3.2,0.28,6.39,0.4,9.59c0.43,11.99,0.84,23.98,1.31,35.97c0.05,1.28-0.4,1.73-1.59,1.99c-16.75,3.62-30.82,11.67-41.42,25.34
		c-7.14,9.21-11.32,19.66-12.74,31.22c-0.98,7.99-0.33,15.87,1.48,23.69c0.25,1.09,0.7,1.33,1.76,0.97
		c3.33-1.12,6.68-2.16,10.03-3.23c0.33-0.11,0.7-0.41,1-0.12c0.37,0.35,0,0.75-0.14,1.09c-5.63,13.26-11.27,26.52-16.91,39.78
		C885.92,267.05,885.79,267.6,885.62,268.13z"/>
	<path class="st3" d="M944.99,429.6c0.28,0,0.56,0.01,0.84,0c2.09-0.05,2.04-0.05,1.84,1.99c-0.56,5.97-1.06,11.94-1.6,17.91
		c-0.6,6.69-1.23,13.37-1.83,20.05c-0.21,2.35-0.39,4.7-0.59,7.05c-0.03,0.37,0.14,0.88-0.37,1.03c-0.47,0.14-0.7-0.29-0.97-0.57
		c-1.85-1.93-3.7-3.88-5.55-5.81c-1.07-1.12-1.1-1.11-2.28,0c-5.14,4.88-10.43,9.57-16.37,13.48c-12.96,8.53-27.04,14.2-42.4,16.57
		c-9.05,1.39-18.14,1.41-27.26,0.6c-14.58-1.29-28.42-5.14-41.43-11.81c-14.39-7.37-27.05-16.98-37.57-29.33
		c-1.08-1.27-1.07-1.31,0.36-2.23c12.9-8.24,25.8-16.47,38.69-24.73c0.79-0.5,1.29-0.48,1.94,0.24
		c11.37,12.66,25.27,20.93,42.23,23.3c19.32,2.7,36.61-2.19,51.46-15.02c3.03-2.61,2.83-2.08,0.22-4.82
		c-1.43-1.51-2.87-3.01-4.3-4.52c-0.27-0.28-0.71-0.55-0.54-0.99c0.18-0.47,0.7-0.44,1.14-0.46c5.71-0.24,11.42-0.48,17.14-0.72
		c9.07-0.39,18.13-0.78,27.2-1.17C945,429.62,944.99,429.61,944.99,429.6z"/>
	<path class="st6" d="M1083.8,329.99c-4.58-5.4-9.03-10.64-13.48-15.88c-5.77-6.8-11.54-13.6-17.33-20.38
		c-0.58-0.68-0.72-1,0.18-1.57c13.09-8.31,26.14-16.66,39.21-25.01c0.3-0.19,0.61-0.35,1.06-0.6c-0.53,3.66-1.05,7.17-1.54,10.68
		c-0.43,3.06-0.72,2.45,2.09,3.2c33.93,9.03,57.83,29.77,71.87,61.87c5.12,11.69,8.02,23.96,9,36.7c1.3,16.9-1.27,33.29-6.3,49.38
		c-0.29,0.93-0.71,0.84-1.4,0.48c-10.93-5.72-21.86-11.44-32.79-17.15c-2.65-1.39-5.31-2.78-7.96-4.17c-1.59-0.83-1.6-0.85-1.03-2.6
		c2.6-7.89,3.99-16,3.53-24.3c-1.42-25.69-12.88-45.13-36.11-57.04c-1.88-0.96-3.88-1.67-5.86-2.43c-1.5-0.58-1.69-0.41-1.91,1.16
		c-0.33,2.29-0.67,4.58-1.02,6.88C1083.98,329.43,1083.91,329.61,1083.8,329.99z"/>
</g>
</svg>
